{
    "asset":  {
                  "generator":  "glTF-Transform v4.3.0",
                  "version":  "2.0"
              },
    "accessors":  [
                      {
                          "type":  "VEC3",
                          "componentType":  5126,
                          "count":  77669,
                          "max":  [
                                      0.9482280015945435,
                                      0.4210340678691864,
                                      0.0839582234621048
                                  ],
                          "min":  [
                                      -0.9506049752235413,
                                      -0.4223410487174988,
                                      -0.09087538719177246
                                  ],
                          "bufferView":  0,
                          "byteOffset":  0
                      },
                      {
                          "type":  "VEC3",
                          "componentType":  5126,
                          "count":  77669,
                          "bufferView":  0,
                          "byteOffset":  12
                      },
                      {
                          "type":  "VEC2",
                          "componentType":  5126,
                          "count":  77669,
                          "bufferView":  0,
                          "byteOffset":  24
                      },
                      {
                          "type":  "SCALAR",
                          "componentType":  5125,
                          "count":  346983,
                          "bufferView":  1,
                          "byteOffset":  0
                      }
                  ],
    "bufferViews":  [
                        {
                            "buffer":  0,
                            "byteOffset":  0,
                            "byteLength":  2485408,
                            "byteStride":  32,
                            "target":  34962
                        },
                        {
                            "buffer":  0,
                            "byteOffset":  2485408,
                            "byteLength":  1387932,
                            "target":  34963
                        }
                    ],
    "samplers":  [
                     {
                         "magFilter":  9729,
                         "minFilter":  9987,
                         "wrapS":  10497,
                         "wrapT":  10497
                     }
                 ],
    "textures":  [
                     {
                         "source":  0,
                         "sampler":  0
                     },
                     {
                         "source":  3,
                         "sampler":  0
                     },
                     {
                         "source":  2,
                         "sampler":  0
                     },
                     {
                         "source":  1,
                         "sampler":  0
                     }
                 ],
    "images":  [
                   {
                       "mimeType":  "image/jpeg",
                       "uri":  "../textures/baseColor_1.jpg"
                   },
                   {
                       "mimeType":  "image/jpeg",
                       "uri":  "../textures/metallicRoughness_1.jpg"
                   },
                   {
                       "mimeType":  "image/jpeg",
                       "uri":  "../textures/normal_1.jpg"
                   },
                   {
                       "mimeType":  "image/jpeg",
                       "uri":  "../textures/emissive_1.jpg"
                   }
               ],
    "buffers":  [
                    {
                        "uri":  "Meshy_AI_Desert_Night_Assault__0507161337_texture__lod1_mid_r0p5.bin",
                        "byteLength":  3873340
                    }
                ],
    "materials":  [
                      {
                          "doubleSided":  true,
                          "pbrMetallicRoughness":  {
                                                       "baseColorTexture":  {
                                                                                "index":  0
                                                                            },
                                                       "metallicRoughnessTexture":  {
                                                                                        "index":  3
                                                                                    }
                                                   },
                          "emissiveFactor":  [
                                                 1,
                                                 1,
                                                 1
                                             ],
                          "emissiveTexture":  {
                                                  "index":  1
                                              },
                          "normalTexture":  {
                                                "index":  2
                                            }
                      }
                  ],
    "meshes":  [
                   {
                       "primitives":  [
                                          {
                                              "attributes":  {
                                                                 "POSITION":  0,
                                                                 "NORMAL":  1,
                                                                 "TEXCOORD_0":  2
                                                             },
                                              "mode":  4,
                                              "material":  0,
                                              "indices":  3
                                          }
                                      ]
                   }
               ],
    "nodes":  [
                  {
                      "mesh":  0
                  }
              ],
    "scenes":  [
                   {
                       "nodes":  [
                                     0
                                 ]
                   }
               ],
    "scene":  0
}
