{
  "asset": {
    "generator": "glTF-Transform v4.3.0",
    "version": "2.0"
  },
  "accessors": [
    {
      "type": "VEC3",
      "componentType": 5126,
      "count": 108,
      "max": [
        1,
        0.2797239124774933,
        1
      ],
      "min": [
        -1,
        -0.21085891127586365,
        -1.9902009963989258
      ],
      "bufferView": 0,
      "byteOffset": 0
    },
    {
      "type": "VEC3",
      "componentType": 5126,
      "count": 108,
      "bufferView": 0,
      "byteOffset": 12
    },
    {
      "type": "VEC2",
      "componentType": 5126,
      "count": 108,
      "bufferView": 0,
      "byteOffset": 24
    },
    {
      "type": "SCALAR",
      "componentType": 5123,
      "count": 162,
      "bufferView": 1,
      "byteOffset": 0
    },
    {
      "type": "SCALAR",
      "componentType": 5123,
      "count": 18,
      "bufferView": 1,
      "byteOffset": 324
    },
    {
      "type": "VEC3",
      "componentType": 5126,
      "count": 8,
      "max": [
        0.7986558675765991,
        -0.16153128445148468,
        0.7941648960113525
      ],
      "min": [
        -0.7986558675765991,
        -0.16153134405612946,
        -1.7843658924102783
      ],
      "bufferView": 2,
      "byteOffset": 0
    },
    {
      "type": "VEC3",
      "componentType": 5126,
      "count": 8,
      "bufferView": 2,
      "byteOffset": 12
    },
    {
      "type": "VEC2",
      "componentType": 5126,
      "count": 8,
      "bufferView": 2,
      "byteOffset": 24
    },
    {
      "type": "SCALAR",
      "componentType": 5126,
      "count": 70,
      "max": [
        2.875
      ],
      "min": [
        0
      ],
      "bufferView": 3,
      "byteOffset": 0
    },
    {
      "type": "VEC3",
      "componentType": 5126,
      "count": 70,
      "bufferView": 3,
      "byteOffset": 280
    },
    {
      "type": "VEC4",
      "componentType": 5126,
      "count": 70,
      "bufferView": 3,
      "byteOffset": 1120
    },
    {
      "type": "VEC3",
      "componentType": 5126,
      "count": 70,
      "bufferView": 3,
      "byteOffset": 2240
    }
  ],
  "bufferViews": [
    {
      "buffer": 0,
      "byteOffset": 0,
      "byteLength": 3456,
      "byteStride": 32,
      "target": 34962
    },
    {
      "buffer": 0,
      "byteOffset": 3456,
      "byteLength": 360,
      "target": 34963
    },
    {
      "buffer": 0,
      "byteOffset": 3816,
      "byteLength": 256,
      "byteStride": 32,
      "target": 34962
    },
    {
      "buffer": 0,
      "byteOffset": 4072,
      "byteLength": 3080
    }
  ],
  "buffers": [
    {
      "uri": "charactershield.bin",
      "byteLength": 7152
    }
  ],
  "materials": [
    {
      "name": "shieldmaterial",
      "doubleSided": true,
      "pbrMetallicRoughness": {
        "baseColorFactor": [
          0.28704366087913513,
          0.28704366087913513,
          0.28704366087913513,
          1
        ],
        "roughnessFactor": 0.20370370149612427,
        "metallicFactor": 0.6018518805503845
      }
    },
    {
      "name": "shieldinside",
      "doubleSided": true,
      "pbrMetallicRoughness": {
        "baseColorFactor": [
          0.24763108789920807,
          0.0404757522046566,
          0.029110435396432877,
          1
        ],
        "roughnessFactor": 0.8518518209457397,
        "metallicFactor": 0
      }
    }
  ],
  "meshes": [
    {
      "name": "Plane",
      "primitives": [
        {
          "attributes": {
            "POSITION": 0,
            "NORMAL": 1,
            "TEXCOORD_0": 2
          },
          "mode": 4,
          "material": 0,
          "indices": 3
        },
        {
          "attributes": {
            "POSITION": 5,
            "NORMAL": 6,
            "TEXCOORD_0": 7
          },
          "mode": 4,
          "material": 1,
          "indices": 4
        }
      ]
    }
  ],
  "nodes": [
    {
      "name": "Plane",
      "translation": [
        1.0055471658706665,
        1.8933764696121216,
        -1.289037823677063
      ],
      "rotation": [
        0.7071068286895752,
        0,
        0,
        0.7071068286895752
      ],
      "mesh": 0
    }
  ],
  "animations": [
    {
      "name": "idle",
      "samplers": [
        {
          "input": 8,
          "output": 9,
          "interpolation": "LINEAR"
        },
        {
          "input": 8,
          "output": 10,
          "interpolation": "LINEAR"
        },
        {
          "input": 8,
          "output": 11,
          "interpolation": "LINEAR"
        }
      ],
      "channels": [
        {
          "sampler": 0,
          "target": {
            "node": 0,
            "path": "translation"
          }
        },
        {
          "sampler": 1,
          "target": {
            "node": 0,
            "path": "rotation"
          }
        },
        {
          "sampler": 2,
          "target": {
            "node": 0,
            "path": "scale"
          }
        }
      ]
    }
  ],
  "scenes": [
    {
      "name": "Scene",
      "nodes": [
        0
      ]
    }
  ],
  "scene": 0
}