{
    "asset":  {
                  "generator":  "glTF-Transform v4.3.0",
                  "version":  "2.0"
              },
    "accessors":  [
                      {
                          "type":  "VEC3",
                          "componentType":  5126,
                          "count":  258926,
                          "max":  [
                                      0.8537020087242126,
                                      0.9487101435661316,
                                      0.22879107296466827
                                  ],
                          "min":  [
                                      -0.8553529977798462,
                                      -0.9495311379432678,
                                      -0.23376797139644623
                                  ],
                          "bufferView":  0,
                          "byteOffset":  0
                      },
                      {
                          "type":  "VEC3",
                          "componentType":  5126,
                          "count":  258926,
                          "bufferView":  0,
                          "byteOffset":  12
                      },
                      {
                          "type":  "VEC2",
                          "componentType":  5126,
                          "count":  258926,
                          "bufferView":  0,
                          "byteOffset":  24
                      },
                      {
                          "type":  "SCALAR",
                          "componentType":  5125,
                          "count":  1277217,
                          "bufferView":  1,
                          "byteOffset":  0
                      }
                  ],
    "bufferViews":  [
                        {
                            "buffer":  0,
                            "byteOffset":  0,
                            "byteLength":  8285632,
                            "byteStride":  32,
                            "target":  34962
                        },
                        {
                            "buffer":  0,
                            "byteOffset":  8285632,
                            "byteLength":  5108868,
                            "target":  34963
                        }
                    ],
    "samplers":  [
                     {
                         "magFilter":  9729,
                         "minFilter":  9987,
                         "wrapS":  10497,
                         "wrapT":  10497
                     }
                 ],
    "textures":  [
                     {
                         "source":  0,
                         "sampler":  0
                     },
                     {
                         "source":  3,
                         "sampler":  0
                     },
                     {
                         "source":  2,
                         "sampler":  0
                     },
                     {
                         "source":  1,
                         "sampler":  0
                     }
                 ],
    "images":  [
                   {
                       "mimeType":  "image/jpeg",
                       "uri":  "../textures/baseColor_1.jpg"
                   },
                   {
                       "mimeType":  "image/jpeg",
                       "uri":  "../textures/metallicRoughness_1.jpg"
                   },
                   {
                       "mimeType":  "image/jpeg",
                       "uri":  "../textures/normal_1.jpg"
                   },
                   {
                       "mimeType":  "image/jpeg",
                       "uri":  "../textures/emissive_1.jpg"
                   }
               ],
    "buffers":  [
                    {
                        "uri":  "Meshy_AI_Black_Ops_Operator_in_0507164325_texture__lod0_near_r0p75.bin",
                        "byteLength":  13394500
                    }
                ],
    "materials":  [
                      {
                          "doubleSided":  true,
                          "pbrMetallicRoughness":  {
                                                       "baseColorTexture":  {
                                                                                "index":  0
                                                                            },
                                                       "metallicRoughnessTexture":  {
                                                                                        "index":  3
                                                                                    }
                                                   },
                          "emissiveFactor":  [
                                                 1,
                                                 1,
                                                 1
                                             ],
                          "emissiveTexture":  {
                                                  "index":  1
                                              },
                          "normalTexture":  {
                                                "index":  2
                                            }
                      }
                  ],
    "meshes":  [
                   {
                       "primitives":  [
                                          {
                                              "attributes":  {
                                                                 "POSITION":  0,
                                                                 "NORMAL":  1,
                                                                 "TEXCOORD_0":  2
                                                             },
                                              "mode":  4,
                                              "material":  0,
                                              "indices":  3
                                          }
                                      ]
                   }
               ],
    "nodes":  [
                  {
                      "mesh":  0
                  }
              ],
    "scenes":  [
                   {
                       "nodes":  [
                                     0
                                 ]
                   }
               ],
    "scene":  0
}
