{"accessors":[{"bufferView":1,"byteOffset":0,"componentType":5126,"normalized":false,"count":331021,"type":"VEC3","max":[0.8537020087242126,0.9487101435661316,0.22879107296466827],"min":[-0.8553529977798462,-0.9495751261711121,-0.23376797139644623]},{"bufferView":2,"byteOffset":0,"componentType":5126,"normalized":false,"count":331021,"type":"VEC2","max":[0.9979326725006104,0.999973475933075],"min":[4.918408740195446e-05,2.6524066925048828e-05]},{"bufferView":3,"byteOffset":0,"componentType":5126,"normalized":false,"count":331021,"type":"VEC3","max":[0.9999995231628418,0.9999918341636658,0.9999988675117493],"min":[-0.9999946355819702,-0.9999968409538269,-0.9999964237213135]},{"bufferView":0,"byteOffset":0,"componentType":5125,"normalized":false,"count":1702974,"type":"SCALAR"},{"bufferView":8,"componentType":5126,"count":14,"type":"MAT4"},{"bufferView":9,"componentType":5123,"count":331021,"type":"VEC4"},{"bufferView":10,"componentType":5126,"count":331021,"type":"VEC4"}],"asset":{"generator":"pygltflib@v1.16.5","version":"2.0"},"bufferViews":[{"buffer":0,"byteOffset":0,"byteLength":6811896,"target":34963},{"buffer":0,"byteOffset":6811896,"byteLength":3972252,"target":34962},{"buffer":0,"byteOffset":10784148,"byteLength":2648168,"target":34962},{"buffer":0,"byteOffset":13432316,"byteLength":3972252,"target":34962},{"buffer":0,"byteOffset":17404568,"byteLength":3611525},{"buffer":0,"byteOffset":21016096,"byteLength":541723},{"buffer":0,"byteOffset":21557820,"byteLength":3720891},{"buffer":0,"byteOffset":25278712,"byteLength":66191},{"buffer":0,"byteOffset":25344904,"byteLength":896},{"buffer":0,"byteOffset":25345800,"byteLength":2648168,"target":34962,"byteStride":8},{"buffer":0,"byteOffset":27993968,"byteLength":5296336,"target":34962,"byteStride":16}],"buffers":[{"byteLength":33290304,"uri":"character.bin"}],"images":[{"mimeType":"image/jpeg","bufferView":4},{"mimeType":"image/jpeg","bufferView":5},{"mimeType":"image/jpeg","bufferView":6},{"mimeType":"image/jpeg","bufferView":7}],"materials":[{"pbrMetallicRoughness":{"baseColorFactor":[1.0,1.0,1.0,1.0],"metallicFactor":1.0,"roughnessFactor":1.0,"baseColorTexture":{"index":0,"texCoord":0},"metallicRoughnessTexture":{"index":1,"texCoord":0}},"normalTexture":{"index":2,"texCoord":0},"emissiveFactor":[1.0,1.0,1.0],"emissiveTexture":{"index":3,"texCoord":0},"alphaMode":"OPAQUE","doubleSided":true}],"meshes":[{"primitives":[{"attributes":{"POSITION":0,"NORMAL":2,"TEXCOORD_0":1,"JOINTS_0":5,"WEIGHTS_0":6},"indices":3,"mode":4,"material":0}]}],"nodes":[{"mesh":0,"matrix":[1.0,0.0,0.0,0.0,0.0,1.0,0.0,0.0,0.0,0.0,1.0,0.0,0.0,0.0,0.0,1.0],"skin":0},{"name":"body","translation":[-0.0008254945278167725,-0.0004324913024902344,-0.002488449215888977],"rotation":[0.0,0.0,0.0,1.0],"scale":[1.0,1.0,1.0],"children":[2,3,8,9,14]},{"name":"shoulder.r","translation":[0.3076299011707306,0.5315198755264283,0.0],"rotation":[0.0,0.0,0.0,1.0],"scale":[1.0,1.0,1.0],"children":[4]},{"name":"shoulder.l","translation":[-0.3076299011707306,0.5315198755264283,0.0],"rotation":[0.0,0.0,0.0,1.0],"scale":[1.0,1.0,1.0],"children":[5]},{"name":"arm.r","translation":[0.20508660078048707,-0.24677708506584173,0.0],"rotation":[0.0,0.0,0.0,1.0],"scale":[1.0,1.0,1.0],"children":[6]},{"name":"arm.l","translation":[-0.20508660078048707,-0.24677708506584173,0.0],"rotation":[0.0,0.0,0.0,1.0],"scale":[1.0,1.0,1.0],"children":[7]},{"name":"hand.r","translation":[0.20508660078048702,-0.2847427904605866,0.0],"rotation":[0.0,0.0,0.0,1.0],"scale":[1.0,1.0,1.0]},{"name":"hand.l","translation":[-0.20508660078048702,-0.2847427904605866,0.0],"rotation":[0.0,0.0,0.0,1.0],"scale":[1.0,1.0,1.0]},{"name":"thigh.r","translation":[0.17090550065040588,-0.09491426348686216,0.0],"rotation":[0.0,0.0,0.0,1.0],"scale":[1.0,1.0,1.0],"children":[10]},{"name":"thigh.l","translation":[-0.17090550065040588,-0.09491426348686216,0.0],"rotation":[0.0,0.0,0.0,1.0],"scale":[1.0,1.0,1.0],"children":[11]},{"name":"leg.r","translation":[0.0,-0.43660561203956605,0.0],"rotation":[0.0,0.0,0.0,1.0],"scale":[1.0,1.0,1.0],"children":[12]},{"name":"leg.l","translation":[0.0,-0.43660561203956605,0.0],"rotation":[0.0,0.0,0.0,1.0],"scale":[1.0,1.0,1.0],"children":[13]},{"name":"foot.r","translation":[0.0,-0.4176227593421936,0.023127952218055726],"rotation":[0.0,0.0,0.0,1.0],"scale":[1.0,1.0,1.0]},{"name":"foot.l","translation":[0.0,-0.4176227593421936,0.023127952218055726],"rotation":[0.0,0.0,0.0,1.0],"scale":[1.0,1.0,1.0]},{"name":"head","translation":[0.0,0.7972798132896424,0.0],"rotation":[0.0,0.0,0.0,1.0],"scale":[1.0,1.0,1.0]}],"samplers":[{"magFilter":9729,"minFilter":9987,"wrapS":10497,"wrapT":10497},{"magFilter":9729,"minFilter":9987,"wrapS":10497,"wrapT":10497},{"magFilter":9729,"minFilter":9987,"wrapS":10497,"wrapT":10497},{"magFilter":9729,"minFilter":9987,"wrapS":10497,"wrapT":10497}],"scene":0,"scenes":[{"nodes":[0,1]}],"textures":[{"sampler":0,"source":0},{"sampler":1,"source":1},{"sampler":2,"source":2},{"sampler":3,"source":3}],"skins":[{"name":"auto_humanoid","joints":[1,2,3,4,5,6,7,8,9,10,11,12,13,14],"inverseBindMatrices":4,"skeleton":1}]}